<svg width="30" height="15" viewBox="0 0 30 15" fill="none" xmlns="http://www.w3.org/2000/svg">
<path d="M29.2607 6.25629C29.043 5.71205 28.7528 5.20413 28.4263 4.73247C26.7573 2.26531 24.1814 0.632672 21.2789 0.233575C20.9161 0.197325 20.517 0.269826 20.2268 0.487534C18.7029 1.61226 16.8889 2.19274 15.0023 2.19274C13.1156 2.19274 11.3016 1.61226 9.77774 0.487534C9.48746 0.269826 9.08837 0.161005 8.72559 0.233575C5.82309 0.632672 3.21087 2.26531 1.57823 4.73247C1.2517 5.20413 0.961423 5.74837 0.743784 6.25629C0.634964 6.474 0.671214 6.72795 0.780034 6.94566C1.07031 7.45358 1.43309 7.96157 1.75962 8.39691C2.26753 9.08629 2.81177 9.70302 3.42858 10.2835C3.93649 10.7914 4.51698 11.2631 5.09753 11.7348C7.96371 13.8754 11.4105 15 14.966 15C18.5216 15 21.9683 13.8753 24.8345 11.7348C25.415 11.2994 25.9954 10.7914 26.5034 10.2835C27.0839 9.70302 27.6644 9.08622 28.1724 8.39691C28.5352 7.92525 28.8618 7.45358 29.152 6.94566C29.3333 6.72795 29.3695 6.47393 29.2607 6.25629Z" fill="#09A66D"/>
</svg>
